<svg width="24" height="22" viewBox="0 0 24 22" fill="none" xmlns="http://www.w3.org/2000/svg">
<g filter="url(#filter0_d_3206_7658)">
<path d="M6.54 2.5C6.6 3.39 6.75 4.26 6.99 5.09L5.79 6.29C5.38 5.09 5.12 3.82 5.03 2.5H6.54ZM16.4 14.52C17.25 14.76 18.12 14.91 19 14.97V16.46C17.68 16.37 16.41 16.11 15.2 15.71L16.4 14.52ZM7.5 0.5H4C3.45 0.5 3 0.95 3 1.5C3 10.89 10.61 18.5 20 18.5C20.55 18.5 21 18.05 21 17.5V14.01C21 13.46 20.55 13.01 20 13.01C18.76 13.01 17.55 12.81 16.43 12.44C16.33 12.4 16.22 12.39 16.12 12.39C15.86 12.39 15.61 12.49 15.41 12.68L13.21 14.88C10.38 13.43 8.06 11.12 6.62 8.29L8.82 6.09C9.1 5.81 9.18 5.42 9.07 5.07C8.7 3.95 8.5 2.75 8.5 1.5C8.5 0.95 8.05 0.5 7.5 0.5Z" fill="#FA58A6"/>
</g>
<defs>
<filter id="filter0_d_3206_7658" x="-1" y="0.5" width="26" height="26" filterUnits="userSpaceOnUse" color-interpolation-filters="sRGB">
<feFlood flood-opacity="0" result="BackgroundImageFix"/>
<feColorMatrix in="SourceAlpha" type="matrix" values="0 0 0 0 0 0 0 0 0 0 0 0 0 0 0 0 0 0 127 0" result="hardAlpha"/>
<feOffset dy="4"/>
<feGaussianBlur stdDeviation="2"/>
<feComposite in2="hardAlpha" operator="out"/>
<feColorMatrix type="matrix" values="0 0 0 0 0 0 0 0 0 0 0 0 0 0 0 0 0 0 0.25 0"/>
<feBlend mode="normal" in2="BackgroundImageFix" result="effect1_dropShadow_3206_7658"/>
<feBlend mode="normal" in="SourceGraphic" in2="effect1_dropShadow_3206_7658" result="shape"/>
</filter>
</defs>
</svg>
