<svg width="40" height="40" viewBox="0 0 40 40" fill="none" xmlns="http://www.w3.org/2000/svg">
<path d="M31.934 15.052C31.8764 13.7742 31.67 12.8999 31.3771 12.1361C31.0698 11.3483 30.6618 10.6757 29.9944 10.0128C29.3271 9.34988 28.6598 8.93195 27.8724 8.6293C27.109 8.33147 26.2353 8.1297 24.9582 8.07206C23.6764 8.01441 23.2683 8 20.0132 8C16.7534 8 16.3453 8.01441 15.0682 8.07206C13.7912 8.1297 12.9174 8.33627 12.1541 8.6293C11.3619 8.93675 10.6898 9.34508 10.0272 10.0128C9.36469 10.6805 8.94701 11.3483 8.64455 12.1361C8.35169 12.8999 8.14525 13.7742 8.08764 15.052C8.03003 16.3347 8.01562 16.743 8.01562 20C8.01562 23.2618 8.03003 23.6701 8.08764 24.948C8.14525 26.2258 8.35169 27.1001 8.64455 27.8639C8.95181 28.6517 9.35989 29.3243 10.0272 29.9872C10.6898 30.6549 11.3619 31.0681 12.1493 31.3707C12.9126 31.6685 13.7864 31.8703 15.0634 31.9279C16.3453 31.9856 16.7534 32 20.0084 32C23.2683 32 23.6764 31.9856 24.9534 31.9279C26.2305 31.8703 27.1042 31.6637 27.8676 31.3707C28.655 31.0633 29.3271 30.6549 29.9896 29.9872C30.6522 29.3195 31.0698 28.6517 31.3723 27.8639C31.67 27.1001 31.8716 26.2258 31.9292 24.948C31.9868 23.6653 32.0012 23.257 32.0012 20C32.0012 16.743 31.9916 16.3299 31.934 15.052ZM29.7784 24.8519C29.7256 26.024 29.5287 26.6629 29.3655 27.0809C29.1495 27.6381 28.8854 28.0416 28.4629 28.4644C28.0404 28.8871 27.642 29.1417 27.0802 29.3675C26.6578 29.5308 26.0192 29.7278 24.8526 29.7806C23.5899 29.8383 23.2107 29.8527 20.0036 29.8527C16.7966 29.8527 16.4173 29.8383 15.1547 29.7806C13.9832 29.7278 13.3447 29.5308 12.927 29.3675C12.3701 29.1513 11.9668 28.8871 11.5443 28.4644C11.1218 28.0416 10.8674 27.6429 10.6418 27.0809C10.4785 26.6581 10.2817 26.0192 10.2289 24.8519C10.1713 23.5885 10.1569 23.209 10.1569 20C10.1569 16.791 10.1713 16.4115 10.2289 15.1481C10.2817 13.976 10.4785 13.3371 10.6418 12.9191C10.8578 12.3619 11.1218 11.9584 11.5443 11.5356C11.9668 11.1129 12.3653 10.8583 12.927 10.6325C13.3495 10.4692 13.988 10.2722 15.1547 10.2194C16.4173 10.1617 16.7966 10.1473 20.0036 10.1473C23.2107 10.1473 23.5899 10.1617 24.8526 10.2194C26.024 10.2722 26.6626 10.4692 27.0802 10.6325C27.6371 10.8487 28.0404 11.1129 28.4629 11.5356C28.8854 11.9584 29.1399 12.3571 29.3655 12.9191C29.5287 13.3419 29.7256 13.9808 29.7784 15.1481C29.836 16.4115 29.8504 16.791 29.8504 20C29.8504 23.209 29.8312 23.5885 29.7784 24.8519Z" fill="#FA58A6"/>
<path d="M20.0043 13.832C16.5956 13.832 13.8398 16.5942 13.8398 20.0002C13.8398 23.4109 16.6004 26.1683 20.0043 26.1683C23.4082 26.1683 26.1687 23.4013 26.1687 20.0002C26.1687 16.5894 23.413 13.832 20.0043 13.832ZM20.0043 24.0018C17.7958 24.0018 16.0051 22.2099 16.0051 20.0002C16.0051 17.7904 17.7958 15.9986 20.0043 15.9986C22.2127 15.9986 24.0035 17.7904 24.0035 20.0002C24.0035 22.2099 22.2127 24.0018 20.0043 24.0018Z" fill="#FA58A6"/>
<path d="M26.409 15.0327C27.2045 15.0327 27.8493 14.3875 27.8493 13.5915C27.8493 12.7956 27.2045 12.1504 26.409 12.1504C25.6136 12.1504 24.9688 12.7956 24.9688 13.5915C24.9688 14.3875 25.6136 15.0327 26.409 15.0327Z" fill="#FA58A6"/>
<path d="M8 20C8 23.2618 8.0144 23.6701 8.07201 24.948C8.12963 26.2258 8.33607 27.1001 8.62893 27.8639C8.93619 28.6517 9.34427 29.3243 10.0116 29.9872C10.6741 30.6501 11.3463 31.0681 12.1336 31.3707C12.897 31.6685 13.7708 31.8703 15.0478 31.9279C16.3297 31.9856 16.7377 32 19.9928 32C23.2527 32 23.6607 31.9856 24.9378 31.9279C26.2148 31.8703 27.0886 31.6637 27.852 31.3707C28.6393 31.0633 29.3115 30.6549 29.974 29.9872C30.6365 29.3243 31.0542 28.6517 31.3567 27.8639C31.6543 27.1001 31.856 26.2258 31.9136 24.948C31.9712 23.6653 31.9856 23.257 31.9856 20C31.9856 16.7382 31.9712 16.3299 31.9136 15.052C31.856 13.7742 31.6495 12.8999 31.3567 12.1361C31.0494 11.3483 30.6413 10.6757 29.974 10.0128C29.3163 9.34508 28.6441 8.93195 27.8568 8.6293C27.0934 8.33147 26.2196 8.1297 24.9426 8.07206C23.6607 8.01441 23.2527 8 19.9976 8C16.7377 8 16.3297 8.01441 15.0526 8.07206C13.7756 8.1297 12.9018 8.33627 12.1384 8.6293C11.3511 8.93675 10.6789 9.34508 10.0164 10.0128C9.35387 10.6805 8.93619 11.3483 8.63373 12.1361C8.33607 12.8999 8.12963 13.7742 8.07201 15.052C8.0144 16.3299 8 16.7382 8 20ZM10.1652 20C10.1652 16.7958 10.1796 16.4115 10.2372 15.1481C10.2901 13.976 10.4869 13.3371 10.6501 12.9191C10.8662 12.3619 11.1302 11.9584 11.5527 11.5356C11.9752 11.1129 12.3737 10.8583 12.9354 10.6325C13.3579 10.4692 13.9964 10.2722 15.163 10.2194C16.4257 10.1617 16.805 10.1473 20.012 10.1473C23.219 10.1473 23.5983 10.1617 24.861 10.2194C26.0324 10.2722 26.6709 10.4692 27.0886 10.6325C27.6455 10.8487 28.0488 11.1129 28.4713 11.5356C28.8938 11.9584 29.1482 12.3571 29.3739 12.9191C29.5371 13.3419 29.7339 13.9808 29.7868 15.1481C29.8444 16.4115 29.8588 16.791 29.8588 20C29.8588 23.209 29.8444 23.5885 29.7868 24.8519C29.7339 26.024 29.5371 26.6629 29.3739 27.0809C29.1578 27.6381 28.8938 28.0416 28.4713 28.4644C28.0488 28.8871 27.6503 29.1417 27.0886 29.3675C26.6661 29.5308 26.0276 29.7278 24.861 29.7806C23.5983 29.8383 23.219 29.8527 20.012 29.8527C16.805 29.8527 16.4257 29.8383 15.163 29.7806C13.9916 29.7278 13.3531 29.5308 12.9354 29.3675C12.3785 29.1513 11.9752 28.8871 11.5527 28.4644C11.1302 28.0416 10.8758 27.6429 10.6501 27.0809C10.4869 26.6581 10.2901 26.0192 10.2372 24.8519C10.1748 23.5885 10.1652 23.2042 10.1652 20Z" fill="#FA58A6"/>
</svg>
