<svg width="96" height="48" viewBox="0 0 96 48" fill="none" xmlns="http://www.w3.org/2000/svg">
<path d="M19.99 14C14.47 14 10 18.48 10 24C10 29.52 14.47 34 19.99 34C25.52 34 30 29.52 30 24C30 18.48 25.52 14 19.99 14ZM26.92 20H23.97C23.65 18.75 23.19 17.55 22.59 16.44C24.43 17.07 25.96 18.35 26.92 20ZM20 16.04C20.83 17.24 21.48 18.57 21.91 20H18.09C18.52 18.57 19.17 17.24 20 16.04ZM12.26 26C12.1 25.36 12 24.69 12 24C12 23.31 12.1 22.64 12.26 22H15.64C15.56 22.66 15.5 23.32 15.5 24C15.5 24.68 15.56 25.34 15.64 26H12.26ZM13.08 28H16.03C16.35 29.25 16.81 30.45 17.41 31.56C15.57 30.93 14.04 29.66 13.08 28ZM16.03 20H13.08C14.04 18.34 15.57 17.07 17.41 16.44C16.81 17.55 16.35 18.75 16.03 20ZM20 31.96C19.17 30.76 18.52 29.43 18.09 28H21.91C21.48 29.43 20.83 30.76 20 31.96ZM22.34 26H17.66C17.57 25.34 17.5 24.68 17.5 24C17.5 23.32 17.57 22.65 17.66 22H22.34C22.43 22.65 22.5 23.32 22.5 24C22.5 24.68 22.43 25.34 22.34 26ZM22.59 31.56C23.19 30.45 23.65 29.25 23.97 28H26.92C25.96 29.65 24.43 30.93 22.59 31.56ZM24.36 26C24.44 25.34 24.5 24.68 24.5 24C24.5 23.32 24.44 22.66 24.36 22H27.74C27.9 22.64 28 23.31 28 24C28 24.69 27.9 25.36 27.74 26H24.36Z" fill="#0C0C0C"/>
<path d="M46.2031 19.0781V26.4688C46.2031 27.276 46.0391 27.9948 45.7109 28.625C45.388 29.2552 44.8984 29.7526 44.2422 30.1172C43.5859 30.4766 42.763 30.6562 41.7734 30.6562C40.362 30.6562 39.2865 30.2734 38.5469 29.5078C37.8125 28.7422 37.4453 27.7188 37.4453 26.4375V19.0781H38.7812V26.4766C38.7812 27.4453 39.0365 28.1927 39.5469 28.7188C40.0625 29.2448 40.8307 29.5078 41.8516 29.5078C42.5495 29.5078 43.1198 29.3828 43.5625 29.1328C44.0104 28.8776 44.3411 28.5234 44.5547 28.0703C44.7734 27.612 44.8828 27.0833 44.8828 26.4844V19.0781H46.2031ZM55.6797 27.4609C55.6797 28.138 55.5104 28.7161 55.1719 29.1953C54.8385 29.6693 54.3698 30.0312 53.7656 30.2812C53.1615 30.5312 52.4505 30.6562 51.6328 30.6562C51.2005 30.6562 50.7917 30.6354 50.4062 30.5938C50.0208 30.5521 49.6667 30.4922 49.3438 30.4141C49.0208 30.3359 48.737 30.2396 48.4922 30.125V28.8516C48.8828 29.013 49.3594 29.1641 49.9219 29.3047C50.4844 29.4401 51.0729 29.5078 51.6875 29.5078C52.2604 29.5078 52.7448 29.4323 53.1406 29.2812C53.5365 29.125 53.8359 28.9036 54.0391 28.6172C54.2474 28.3255 54.3516 27.9766 54.3516 27.5703C54.3516 27.1797 54.2656 26.8542 54.0938 26.5938C53.9219 26.3281 53.6354 26.0885 53.2344 25.875C52.8385 25.6562 52.2969 25.4245 51.6094 25.1797C51.125 25.0078 50.6979 24.8203 50.3281 24.6172C49.9583 24.4089 49.6484 24.1745 49.3984 23.9141C49.1484 23.6536 48.9583 23.3516 48.8281 23.0078C48.7031 22.6641 48.6406 22.2708 48.6406 21.8281C48.6406 21.2188 48.7943 20.6979 49.1016 20.2656C49.4141 19.8281 49.8438 19.4948 50.3906 19.2656C50.9427 19.0312 51.5755 18.9141 52.2891 18.9141C52.8984 18.9141 53.4609 18.9714 53.9766 19.0859C54.4974 19.2005 54.974 19.3542 55.4062 19.5469L54.9922 20.6875C54.5807 20.5156 54.1432 20.3724 53.6797 20.2578C53.2214 20.1432 52.7474 20.0859 52.2578 20.0859C51.7682 20.0859 51.3542 20.1589 51.0156 20.3047C50.6823 20.4453 50.4271 20.6458 50.25 20.9062C50.0729 21.1667 49.9844 21.4766 49.9844 21.8359C49.9844 22.237 50.0677 22.5703 50.2344 22.8359C50.4062 23.1016 50.6771 23.3385 51.0469 23.5469C51.4219 23.75 51.9167 23.9635 52.5312 24.1875C53.2031 24.4323 53.7734 24.6927 54.2422 24.9688C54.7109 25.2396 55.0677 25.5729 55.3125 25.9688C55.5573 26.3594 55.6797 26.8568 55.6797 27.4609Z" fill="#0C0C0C"/>
<path d="M61.1699 26.665C61.1699 25.8949 61.2428 25.1452 61.3887 24.416C61.5391 23.6868 61.7669 22.9919 62.0723 22.3311C62.3776 21.6702 62.7627 21.0618 63.2275 20.5059H64.3145C63.6536 21.3717 63.1569 22.3333 62.8242 23.3906C62.4915 24.4479 62.3252 25.5348 62.3252 26.6514C62.3252 27.3805 62.3981 28.1006 62.5439 28.8115C62.6943 29.5179 62.9154 30.1992 63.207 30.8555C63.5033 31.5117 63.8678 32.1315 64.3008 32.7148H63.2275C62.7627 32.168 62.3776 31.571 62.0723 30.9238C61.7669 30.2812 61.5391 29.5999 61.3887 28.8799C61.2428 28.1598 61.1699 27.4215 61.1699 26.665ZM71.6699 30.5H66.1055V20.5059H71.6699V21.5312H67.2676V24.7646H71.417V25.7764H67.2676V29.4746H71.6699V30.5ZM81.6982 30.5H80.3584L74.9102 22.1055H74.8555C74.8691 22.3288 74.8851 22.584 74.9033 22.8711C74.9215 23.1536 74.9352 23.4567 74.9443 23.7803C74.958 24.0993 74.9648 24.4251 74.9648 24.7578V30.5H73.8848V20.5059H75.2178L80.6455 28.873H80.6934C80.6842 28.7135 80.6729 28.488 80.6592 28.1963C80.6455 27.9001 80.6318 27.5833 80.6182 27.2461C80.609 26.9043 80.6045 26.5876 80.6045 26.2959V20.5059H81.6982V30.5ZM86.627 26.6514C86.627 27.4124 86.5518 28.1553 86.4014 28.8799C86.2555 29.5999 86.0299 30.2835 85.7246 30.9307C85.4238 31.5778 85.0387 32.1725 84.5693 32.7148H83.4961C83.9336 32.1361 84.2982 31.5163 84.5898 30.8555C84.8861 30.1947 85.1071 29.5111 85.2529 28.8047C85.4033 28.0938 85.4785 27.3737 85.4785 26.6445C85.4785 25.9017 85.4033 25.1702 85.2529 24.4502C85.1025 23.7301 84.8792 23.0374 84.583 22.3721C84.2913 21.7067 83.9245 21.0846 83.4824 20.5059H84.5693C85.0387 21.0664 85.4238 21.6771 85.7246 22.3379C86.0299 22.9941 86.2555 23.6868 86.4014 24.416C86.5518 25.1406 86.627 25.8857 86.627 26.6514Z" fill="#606060"/>
</svg>
