<svg width="30" height="37" viewBox="0 0 30 37" fill="none" xmlns="http://www.w3.org/2000/svg">
<path d="M13.0511 35.649C12.4822 35.1596 11.9214 34.6862 11.4807 34.0924C10.5674 32.8809 10.3751 31.5249 10.6555 30.0646C10.976 28.4197 11.681 26.9273 12.3621 25.4189C13.1472 23.6778 13.9805 21.9527 14.325 20.0591C14.5974 18.5908 14.5253 17.1626 13.8363 15.7986C13.8042 15.7264 13.7962 15.6381 13.66 15.6141C13.7642 16.0955 13.8923 16.5689 13.9725 17.0423C14.1888 18.326 13.9404 19.5697 13.5799 20.7973C13.0271 22.6909 12.1377 24.44 11.3526 26.2453C10.8077 27.497 10.287 28.7487 10.0867 30.1127C10.0146 30.6022 10.0226 31.0996 10.0386 31.5891C10.0386 31.7014 10.1187 31.8538 9.99854 31.918C9.87836 31.9822 9.78222 31.8458 9.69408 31.7736C7.93145 30.4497 6.63352 28.7647 5.8804 26.6866C4.61451 23.1803 4.92697 19.7863 6.92195 16.6331C8.0276 14.8839 9.59794 13.56 11.4167 12.5651C12.979 11.7146 14.6695 11.2813 16.4401 11.2813C18.4351 11.2813 20.3179 11.7868 22.0645 12.7577C24.4521 14.0816 26.2948 15.9511 27.4726 18.4303C28.8747 21.367 28.9949 24.3678 27.8011 27.4007C26.5993 30.4337 24.4281 32.6803 21.8562 34.5819C21.5438 34.8145 21.2473 35.0713 20.9348 35.32C20.9268 35.3281 20.9349 35.3441 20.9429 35.3602C25.6859 33.948 30.3649 28.6283 29.9243 21.9126C29.3875 13.7686 22.2969 8.48108 15.0541 9.29146C7.16231 10.1741 2.22695 17.2348 3.10826 24.2876C3.59699 28.179 5.44775 31.2842 8.58042 33.611C9.92643 34.6059 11.4006 35.3361 13.0511 35.649Z" fill="#A10550"/>
<path d="M22.4493 19.9867C22.2089 20.059 21.9686 20.1633 21.7282 20.2114C21.3436 20.2756 21.2715 20.1793 21.3036 19.7861C21.4398 17.9166 21.1754 16.1354 20.1338 14.5307C19.7813 13.9851 19.3086 13.5679 18.6116 13.3271C18.8599 14.0493 19.1083 14.7072 19.2605 15.3892C19.7412 17.5556 19.4608 19.6337 18.5715 21.6476C17.8264 23.3406 16.8089 24.8811 15.9276 26.5019C14.9741 28.2591 14.2531 30.0804 14.3091 32.1345C14.3252 32.7603 14.3973 33.3862 14.5575 33.9959C14.5735 34.0682 14.6617 34.1484 14.5495 34.1885C14.4534 34.2286 14.4133 34.1324 14.3812 34.0601C14.1088 33.4824 13.9646 32.8726 13.9005 32.2468C13.6682 29.936 14.3252 27.8338 15.4549 25.852C15.5189 25.7397 15.583 25.6273 15.6552 25.4909C15.1985 25.6915 14.8219 26.0285 14.3732 26.7506C13.0913 28.8207 12.5065 31.0593 12.867 33.4824C13.1714 35.5285 14.6456 36.8363 16.7047 36.9807C17.1053 37.0128 17.5059 36.9968 17.9065 36.9888C18.0107 36.9888 18.1228 37.0128 18.1709 36.8925C16.3442 36.1944 15.3667 34.8224 15.1664 32.9208C15.0062 31.4364 15.8715 30.5137 17.3617 30.3934C17.9786 30.3452 18.5875 30.3934 19.1884 30.5378C19.7172 30.6581 20.246 30.6902 20.7668 30.4977C21.4718 30.2329 21.7202 29.7354 21.5359 29.0053C21.4718 28.7565 21.3837 28.5239 21.3276 28.2751C21.2235 27.8178 21.3597 27.5931 21.8083 27.4808C22.3051 27.3524 22.3131 27.3524 22.0166 26.9673C21.8804 26.7908 21.8884 26.6784 22.1208 26.6303C22.5374 26.542 22.5214 26.3174 22.3451 26.0125C22.273 25.8841 22.2089 25.7557 22.1528 25.6193C21.9445 25.0577 21.9846 24.9213 22.4813 24.5843C22.5935 24.5121 22.6977 24.4318 22.8018 24.3436C23.1623 24.0146 23.1704 23.7257 22.7938 23.4048C22.5615 23.2042 22.3051 23.0277 22.0327 22.8913C21.5199 22.6345 21.3116 22.2093 21.2635 21.6637C21.2555 21.5674 21.2475 21.4791 21.2395 21.3828C21.2395 21.1261 21.1754 20.8533 21.2475 20.6286C21.3436 20.3318 21.6962 20.5163 21.9125 20.42C22.1288 20.3237 22.3612 20.2515 22.5134 20.0429C22.4974 20.0349 22.4733 20.0108 22.4493 19.9867Z" fill="#A10550"/>
<path d="M6.60127 5.59241C7.70692 5.92941 8.61227 6.55525 9.26925 7.51808C9.3013 7.56622 9.36539 7.60634 9.41346 7.64646C9.08497 6.30652 8.58022 5.0789 7.25825 4.40492C6.59326 4.06793 5.89622 4.18828 5.2152 4.29259C4.4781 4.41294 3.78106 4.30864 3.10806 4.00374C3.05999 3.97967 3.01192 3.97967 2.95583 3.96362C2.94782 3.96362 2.9318 3.97165 2.88373 3.99572C3.05999 4.89436 3.47661 5.6887 4.06148 6.38675C5.05496 7.57424 6.32886 8.26427 7.85113 8.52103C8.39595 8.60929 8.90871 8.78581 9.4375 9.13885C9.26925 8.28032 8.94877 7.59832 8.41998 7.01259C7.90722 6.44292 7.27427 6.05778 6.60127 5.72079C6.36892 5.64858 6.12856 5.57637 5.86417 5.39985C6.16862 5.42392 6.39296 5.47206 6.60127 5.59241ZM5.70393 5.36775C5.72797 5.36775 5.74399 5.36775 5.76803 5.35973C5.76002 5.36775 5.752 5.37578 5.73598 5.37578C5.71996 5.3838 5.71194 5.36775 5.70393 5.36775Z" fill="#A10550"/>
<path d="M7.89045 9.86899C7.04919 9.37955 6.16788 9.01046 5.21445 8.87406C4.32513 8.74569 3.62007 9.06663 3.0993 9.79678C2.97912 9.95725 2.86695 10.1257 2.75478 10.2862C2.32214 10.9442 1.83341 11.5299 0.952096 11.7866C2.68268 12.7093 4.34916 13.271 6.17589 12.3082C7.08124 11.8348 7.89044 11.1849 8.99609 10.9201C7.46581 10.0455 5.99161 10.0054 4.45332 10.551C5.48686 9.74864 6.68064 9.78875 7.89045 9.86899Z" fill="#A10550"/>
<path d="M10.6546 -2.07429e-07C9.4288 1.87752 8.93206 3.74702 9.94157 5.80909C10.254 6.44295 10.5905 7.06879 10.4944 7.83906C11.0392 7.32555 11.4078 6.71576 11.6401 6.0177C11.8724 5.29558 11.7523 4.58148 11.6882 3.85935C12.233 4.91847 12.249 6.00165 11.8003 7.15705C13.4188 5.26348 13.3707 3.67481 12.0407 2.18242C11.7603 1.86148 11.4718 1.54855 11.2075 1.21156C10.9431 0.874572 10.7508 0.505487 10.6546 -2.07429e-07Z" fill="#A10550"/>
<path d="M15.9109 7.02868C15.31 7.83907 14.4848 8.32851 13.4993 8.6334C14.9575 9.16296 16.5519 8.75376 17.1608 7.22125C17.3531 6.73181 17.4572 6.22632 17.5373 5.71281C17.6655 4.91045 17.7617 4.70986 18.2344 4.05193C17.6014 4.01181 17.0246 4.14019 16.4557 4.26054C15.2459 4.5173 14.3646 5.20733 13.7797 6.29854C13.4272 6.96449 13.0026 7.56627 12.2334 7.98349C13.323 8.19211 14.2364 8.01559 15.0857 7.44591C15.4062 7.22927 15.6705 6.94042 15.959 6.68367C16.0391 6.49913 16.1513 6.33865 16.3596 6.25039C16.2474 6.53924 16.1593 6.82809 15.9109 7.02868Z" fill="#A10550"/>
<path d="M15.9107 7.02881C16.1591 6.82822 16.2472 6.53937 16.3594 6.25854C16.1511 6.33878 16.0389 6.49925 15.9588 6.69182C15.9428 6.80415 15.9267 6.91648 15.9107 7.02881Z" fill="#A10550"/>
<path d="M6.60156 5.59254C6.39325 5.47218 6.17693 5.42404 5.86446 5.41602C6.12886 5.60056 6.36922 5.67277 6.60156 5.73696C6.60156 5.68079 6.60156 5.64068 6.60156 5.59254Z" fill="#A10550"/>
<path d="M22.5214 20.059C22.5455 20.0269 22.5775 19.9868 22.6016 19.9547C22.5375 19.9146 22.4894 19.9307 22.4493 19.9949C22.4734 20.0109 22.4974 20.035 22.5214 20.059Z" fill="#A10550"/>
<path d="M9.40486 7.64648L9.42969 7.67131L9.40486 7.65476L9.40486 7.64648Z" fill="#A10550"/>
<path d="M5.70543 5.36794C5.71345 5.37621 5.72947 5.38449 5.73748 5.38449C5.7455 5.38449 5.76152 5.37621 5.76953 5.36794C5.7455 5.35966 5.72146 5.36794 5.70543 5.36794Z" fill="#A10550"/>
</svg>
