<svg width="40" height="40" viewBox="0 0 40 40" fill="none" xmlns="http://www.w3.org/2000/svg">
<path d="M30.7992 20.1815C30.7992 18.7961 29.7363 17.6716 28.4266 17.6716C27.7813 17.6716 27.2119 17.9327 26.7943 18.3744C25.1809 17.1496 22.9412 16.3465 20.4737 16.2461L21.5556 10.885L25.0671 11.6681C25.105 12.6118 25.8453 13.3748 26.7563 13.3748C27.6864 13.3748 28.4456 12.5716 28.4456 11.5878C28.4456 10.6039 27.6864 9.80078 26.7563 9.80078C26.092 9.80078 25.5226 10.2024 25.2569 10.8047L21.3279 9.92125C21.214 9.90118 21.1001 9.92125 21.0052 9.98149C20.9103 10.0417 20.8533 10.1421 20.8154 10.2626L19.6196 16.2461C17.0952 16.3264 14.8365 17.1094 13.2041 18.3744C12.7866 17.9527 12.1982 17.6716 11.5718 17.6716C10.2621 17.6716 9.19922 18.7961 9.19922 20.1815C9.19922 21.2055 9.76864 22.0689 10.6038 22.4705C10.5658 22.7114 10.5468 22.9724 10.5468 23.2335C10.5468 27.0886 14.7795 30.2008 20.0182 30.2008C25.2569 30.2008 29.4896 27.0886 29.4896 23.2335C29.4896 22.9724 29.4706 22.7315 29.4326 22.4905C30.2108 22.089 30.7992 21.2055 30.7992 20.1815ZM14.5707 21.9685C14.5707 20.9846 15.33 20.1815 16.26 20.1815C17.1901 20.1815 17.9493 20.9846 17.9493 21.9685C17.9493 22.9524 17.1901 23.7555 16.26 23.7555C15.33 23.7555 14.5707 22.9524 14.5707 21.9685ZM24.0041 26.687C22.8463 27.9118 20.6446 27.9921 19.9992 27.9921C19.3539 27.9921 17.1331 27.8917 15.9943 26.687C15.8235 26.5063 15.8235 26.2051 15.9943 26.0244C16.1651 25.8437 16.4498 25.8437 16.6207 26.0244C17.3419 26.7874 18.8983 27.0685 20.0182 27.0685C21.1381 27.0685 22.6755 26.7874 23.4157 26.0244C23.5866 25.8437 23.8713 25.8437 24.0421 26.0244C24.175 26.2252 24.175 26.5063 24.0041 26.687ZM23.7004 23.7555C22.7704 23.7555 22.0112 22.9524 22.0112 21.9685C22.0112 20.9846 22.7704 20.1815 23.7004 20.1815C24.6305 20.1815 25.3897 20.9846 25.3897 21.9685C25.3897 22.9524 24.6305 23.7555 23.7004 23.7555Z" fill="#FA58A6"/>
</svg>
