<svg width="40" height="40" viewBox="0 0 40 40" fill="none" xmlns="http://www.w3.org/2000/svg">
<path d="M23.7559 22.2549H22.9659L22.6859 21.9849C23.6659 20.8449 24.2559 19.3649 24.2559 17.7549C24.2559 14.1649 21.3459 11.2549 17.7559 11.2549C14.1659 11.2549 11.2559 14.1649 11.2559 17.7549C11.2559 21.3449 14.1659 24.2549 17.7559 24.2549C19.3659 24.2549 20.8459 23.6649 21.9859 22.6849L22.2559 22.9649V23.7549L27.2559 28.7449L28.7459 27.2549L23.7559 22.2549ZM17.7559 22.2549C15.2659 22.2549 13.2559 20.2449 13.2559 17.7549C13.2559 15.2649 15.2659 13.2549 17.7559 13.2549C20.2459 13.2549 22.2559 15.2649 22.2559 17.7549C22.2559 20.2449 20.2459 22.2549 17.7559 22.2549Z" fill="#0C0C0C"/>
</svg>
